<svg xmlns="http://www.w3.org/2000/svg" version="1.1" xmlns:xlink="http://www.w3.org/1999/xlink" xmlns:svgjs="http://svgjs.com/svgjs" width="1440" height="560" preserveAspectRatio="none" viewBox="0 0 1440 560"><g mask="url(&quot;#SvgjsMask2535&quot;)" fill="none"><rect width="1440" height="560" x="0" y="0" fill="url(#SvgjsLinearGradient2536)"></rect><path d="M1424 335L593 334" stroke-width="10" stroke="url(#SvgjsLinearGradient2537)" stroke-linecap="round" class="Right"></path><path d="M195 374L928 373" stroke-width="8" stroke="url(#SvgjsLinearGradient2537)" stroke-linecap="round" class="Right"></path><path d="M1161 62L99 61" stroke-width="8" stroke="url(#SvgjsLinearGradient2537)" stroke-linecap="round" class="Right"></path><path d="M888 121L1813 120" stroke-width="6" stroke="url(#SvgjsLinearGradient2538)" stroke-linecap="round" class="Left"></path><path d="M153 129L-259 128" stroke-width="6" stroke="url(#SvgjsLinearGradient2538)" stroke-linecap="round" class="Left"></path><path d="M651 442L-264 441" stroke-width="6" stroke="url(#SvgjsLinearGradient2538)" stroke-linecap="round" class="Left"></path><path d="M1178 399L1761 398" stroke-width="8" stroke="url(#SvgjsLinearGradient2537)" stroke-linecap="round" class="Right"></path><path d="M279 481L-147 480" stroke-width="8" stroke="url(#SvgjsLinearGradient2537)" stroke-linecap="round" class="Right"></path><path d="M17 455L-709 454" stroke-width="6" stroke="url(#SvgjsLinearGradient2538)" stroke-linecap="round" class="Left"></path><path d="M116 82L-448 81" stroke-width="10" stroke="url(#SvgjsLinearGradient2537)" stroke-linecap="round" class="Right"></path><path d="M237 326L1172 325" stroke-width="6" stroke="url(#SvgjsLinearGradient2538)" stroke-linecap="round" class="Left"></path><path d="M832 6L-233 5" stroke-width="6" stroke="url(#SvgjsLinearGradient2537)" stroke-linecap="round" class="Right"></path><path d="M263 163L1327 162" stroke-width="6" stroke="url(#SvgjsLinearGradient2538)" stroke-linecap="round" class="Left"></path><path d="M684 18L1749 17" stroke-width="10" stroke="url(#SvgjsLinearGradient2537)" stroke-linecap="round" class="Right"></path></g><defs><mask id="SvgjsMask2535"><rect width="1440" height="560" fill="#ffffff"></rect></mask><linearGradient x1="15.28%" y1="-39.29%" x2="84.72%" y2="139.29%" gradientUnits="userSpaceOnUse" id="SvgjsLinearGradient2536"><stop stop-color="rgba(67, 122, 179, 1)" offset="0.03"></stop><stop stop-color="rgba(9, 207, 120, 1)" offset="1"></stop></linearGradient><linearGradient x1="0%" y1="0%" x2="100%" y2="0%" id="SvgjsLinearGradient2537"><stop stop-color="rgba(26, 176, 138, 0)" offset="0"></stop><stop stop-color="rgba(26, 176, 138, 1)" offset="1"></stop></linearGradient><linearGradient x1="100%" y1="0%" x2="0%" y2="0%" id="SvgjsLinearGradient2538"><stop stop-color="rgba(26, 176, 138, 0)" offset="0"></stop><stop stop-color="rgba(26, 176, 138, 1)" offset="1"></stop></linearGradient></defs></svg>